<?xml version="1.0" encoding="utf-8"?>
<!-- Generator: Adobe Illustrator 21.1.0, SVG Export Plug-In . SVG Version: 6.00 Build 0)  -->
<svg version="1.1" id="Layer_1" xmlns="http://www.w3.org/2000/svg" xmlns:xlink="http://www.w3.org/1999/xlink" x="0px" y="0px"
	 viewBox="0 0 612 612" style="enable-background:new 0 0 612 612;" xml:space="preserve">
<style type="text/css">
	.st0{fill:#00ABF3;}
	.st1{fill:#FFFFFF;}
</style>
<rect x="0" class="st0" width="612" height="612"/>
<g>
	<g>
		<path class="st1" d="M491,121c0,0-192.5,0-247.8,0c-11.1,0-22.1,1.3-32.9,4.2c-16.8,4.6-31.9,12.4-45.4,23.5
			c-9.5,7.9-17.6,17-24.4,27.4c-7.2,11.1-12.4,23-15.7,35.8c-2.7,10.5-3.7,21.2-3.7,32.1c0,70.2,0,140.3,0,210.5h0V491h81.8v0
			c56,0,112,0,168,0c8.9,0,17.7-1,26.4-3.1c13.8-3.2,26.7-8.6,38.6-16.4c14.2-9.2,25.9-20.9,35.2-35c13.5-20.5,19.9-43.2,19.9-67.7
			c0-39.4,0-78.7,0-118.1c0,0,0,0,0,0c0-31.1,0-62.1,0-93.2h0V121z M437.6,185.4c0,61.7,0,123.3-0.1,185c0,11.2-2.6,21.8-8,31.6
			c-9,16.4-22.5,27.4-40.4,32.9c-6.2,1.9-12.7,2.7-19.3,2.7c-31.3,0-195.6,0-195.6,0v-11h0c0-61.8-0.1-123.7,0-185.5
			c0-16.1,5.5-30.4,15.8-42.7c8.8-10.4,19.8-17.6,32.9-21.4c5.8-1.7,11.7-2.6,17.8-2.6c60,0,196.7,0,196.7,0L437.6,185.4z"/>
	</g>
	<path class="st1" d="M260.6,242.8h162.5v-53.6H251v0.1c-2.7,0-5.4,0-8.1,0c-18.5,0-32.9,8.2-43.1,23.5c-5.6,8.4-8.1,17.9-8.1,28
		c0,16.9,0,33.9,0,50.8h0v132.7h53.6v-90.8h144.4V280h-144c-0.4-0.3-0.5-0.8-0.5-1.7c0.1-5.7,0-11.4,0-17.1
		C245.2,251.1,251.2,244.1,260.6,242.8z"/>
</g>
</svg>
